<svg width="32" height="32" viewBox="0 0 32 32" fill="none" xmlns="http://www.w3.org/2000/svg">
<path d="M2.6665 7.99341C2.6665 7.26008 3.26117 6.66675 3.99317 6.66675H14.6732C15.025 6.66675 15.3625 6.80652 15.6113 7.05532C15.8601 7.30412 15.9998 7.64156 15.9998 7.99341C15.9998 8.34527 15.8601 8.68271 15.6113 8.93151C15.3625 9.18031 15.025 9.32008 14.6732 9.32008H3.99317C3.64132 9.32008 3.30387 9.18031 3.05508 8.93151C2.80628 8.68271 2.6665 8.34527 2.6665 7.99341Z" fill="#10182B"/>
<path d="M2.6665 16C2.6665 15.2667 3.26117 14.6733 3.99317 14.6733H28.0065C28.3584 14.6733 28.6958 14.8131 28.9446 15.0619C29.1934 15.3107 29.3332 15.6482 29.3332 16C29.3332 16.3519 29.1934 16.6893 28.9446 16.9381C28.6958 17.1869 28.3584 17.3267 28.0065 17.3267H3.99317C3.64132 17.3267 3.30387 17.1869 3.05508 16.9381C2.80628 16.6893 2.6665 16.3519 2.6665 16Z" fill="#10182B"/>
<path d="M3.99317 22.6802C3.64132 22.6802 3.30387 22.8199 3.05508 23.0687C2.80628 23.3175 2.6665 23.655 2.6665 24.0068C2.6665 24.3587 2.80628 24.6961 3.05508 24.9449C3.30387 25.1937 3.64132 25.3335 3.99317 25.3335H20.0065C20.3584 25.3335 20.6958 25.1937 20.9446 24.9449C21.1934 24.6961 21.3332 24.3587 21.3332 24.0068C21.3332 23.655 21.1934 23.3175 20.9446 23.0687C20.6958 22.8199 20.3584 22.6802 20.0065 22.6802H3.99317Z" fill="#10182B"/>
</svg>
