<svg width="24" height="22" viewBox="0 0 24 22" fill="none" xmlns="http://www.w3.org/2000/svg">
<path d="M14.745 1.25C14.745 1.25 13.6772 1.625 12 1.625C10.3228 1.625 9.255 1.25 9.255 1.25C9.08627 1.25 8.91875 1.27853 8.75953 1.33437L1.5 3.875L2.27953 8L4.57078 8.25875C4.85137 8.2905 5.10976 8.42662 5.29464 8.64007C5.47952 8.85352 5.57737 9.12869 5.56875 9.41094L5.25 20.75H18.75L18.4313 9.41094C18.4226 9.12869 18.5205 8.85352 18.7054 8.64007C18.8902 8.42662 19.1486 8.2905 19.4292 8.25875L21.7205 8L22.5 3.875L15.2405 1.33437C15.0812 1.27853 14.9137 1.25 14.745 1.25V1.25Z" stroke="#10182B" stroke-opacity="0.5" stroke-width="1.5" stroke-linecap="round" stroke-linejoin="round"/>
</svg>
